<svg xmlns="http://www.w3.org/2000/svg" viewBox="0 0 160 600"><title>switch save</title><g id="Layer_2" data-name="Layer 2"><g id="Switch_and_save." data-name="Switch and save."><path d="M20.61,129h5.21c.13,1.37.75,2.49,3,2.49,1.57,0,2.46-.78,2.46-1.9s-.73-1.49-3-1.84c-5.4-.64-7.21-2.24-7.21-6.09,0-3.44,2.83-6,7.39-6s7.19,1.92,7.54,6H30.92a2.17,2.17,0,0,0-2.46-2.06c-1.46,0-2.21.67-2.21,1.63s.59,1.55,3,1.87c4.84.54,7.32,1.79,7.32,5.93,0,3.5-2.78,6.36-7.69,6.36C23.5,135.43,20.77,133.18,20.61,129Z" fill="#fff"/><path d="M36.93,121.14h5l2,8.36,2.35-8.36h3.85l2.08,8.36,2.27-8.36H59l-4.44,14H50L48,127.31l-2.17,7.79H41.15Z" fill="#fff"/><path d="M60.16,117.35a2.49,2.49,0,0,1,2.61-2.49,2.52,2.52,0,0,1,2.65,2.49,2.5,2.5,0,0,1-2.65,2.45A2.47,2.47,0,0,1,60.16,117.35Zm.24,3.79h4.78v14H60.4Z" fill="#fff"/><path d="M68.38,130.62V124.4H66.7v-3.26h1.68v-2.91h4.78v2.91h2.75v3.26H73.16v5.77a1.27,1.27,0,0,0,1.42,1.46,3.66,3.66,0,0,0,1.36-.24V135a9.62,9.62,0,0,1-2.65.41C70.14,135.43,68.38,133.9,68.38,130.62Z" fill="#fff"/><path d="M77,128.3v-.22c0-4.64,3.34-7.31,7.45-7.31,3.42,0,6.57,1.49,6.83,5.74H86.78a2.07,2.07,0,0,0-2.25-2c-1.68,0-2.67,1.2-2.67,3.55v.21c0,2.43.94,3.69,2.75,3.69A2.32,2.32,0,0,0,87,129.6h4.3c-.13,3.53-2.51,5.83-7,5.83C80.16,135.43,77,133,77,128.3Z" fill="#fff"/><path d="M92.89,115h4.78v8.38a4.93,4.93,0,0,1,4.59-2.61c2.7,0,4.57,1.68,4.57,5.26v9.07h-4.78V127c0-1.58-.61-2.35-2-2.35s-2.38.85-2.38,2.64v7.82H92.89Z" fill="#fff"/><path d="M20.61,159.93c0-3.28,2.78-4.56,7.43-4.56h1.33v-.32c0-1.34-.32-2.22-1.84-2.22a1.72,1.72,0,0,0-1.9,1.66H21.15c.21-3.37,2.86-5,6.67-5s6.31,1.57,6.31,5.28v9.05H29.48v-1.62a4.61,4.61,0,0,1-4.14,1.95C22.83,164.13,20.61,162.9,20.61,159.93Zm8.76-1v-.86H28.12c-1.92,0-2.78.38-2.78,1.53,0,.8.53,1.3,1.66,1.3C28.36,160.89,29.37,160.12,29.37,158.92Z" fill="#fff"/><path d="M36.45,149.84h4.78v2.24a4.92,4.92,0,0,1,4.59-2.61c2.7,0,4.57,1.68,4.57,5.26v9.07H45.61v-8.11c0-1.58-.62-2.35-2-2.35s-2.37.85-2.37,2.64v7.82H36.45Z" fill="#fff"/><path d="M52,157v-.21c0-4.76,2.62-7.29,5.93-7.29a4.52,4.52,0,0,1,4.3,2.35V143.7H67v20.1H62.24v-2.26a4.7,4.7,0,0,1-4.35,2.59C54.66,164.13,52,161.8,52,157Zm10.36-.08v-.21c0-2.35-1-3.61-2.75-3.61s-2.75,1.2-2.75,3.63v.22c0,2.35,1,3.55,2.7,3.55S62.37,159.27,62.37,156.89Z" fill="#fff"/><path d="M73.37,159.37h4.41c.16,1,.61,1.58,2,1.58,1.18,0,1.71-.46,1.71-1.15s-.66-1-2.59-1.26c-3.74-.48-5.31-1.57-5.31-4.48,0-3.1,2.75-4.59,6-4.59,3.45,0,5.85,1.17,6.17,4.51H81.38a1.55,1.55,0,0,0-1.79-1.39c-1,0-1.57.45-1.57,1.09s.64.94,2.35,1.15c3.87.48,5.74,1.5,5.74,4.49,0,3.31-2.46,4.81-6.33,4.81S73.48,162.47,73.37,159.37Z" fill="#fff"/><path d="M86.86,159.93c0-3.28,2.77-4.56,7.42-4.56h1.33v-.32c0-1.34-.32-2.22-1.84-2.22a1.7,1.7,0,0,0-1.89,1.66H87.39c.21-3.37,2.86-5,6.68-5s6.3,1.57,6.3,5.28v9.05H95.72v-1.62a4.59,4.59,0,0,1-4.14,1.95C89.07,164.13,86.86,162.9,86.86,159.93Zm8.75-1v-.86H94.36c-1.92,0-2.78.38-2.78,1.53,0,.8.54,1.3,1.66,1.3C94.6,160.89,95.61,160.12,95.61,158.92Z" fill="#fff"/><path d="M101.09,149.84h5.1l2.91,9,2.86-9h4.56l-5.1,14h-5.21Z" fill="#fff"/><path d="M116.23,157v-.22c0-4.48,3.33-7.31,7.55-7.31,3.82,0,7.1,2.19,7.1,7.21v1.25h-9.82a2.79,2.79,0,0,0,2.91,2.91c1.57,0,2.24-.72,2.43-1.65h4.48c-.42,3.15-2.85,4.94-7.07,4.94C119.43,164.13,116.23,161.56,116.23,157Zm10-1.77c-.08-1.68-.91-2.61-2.46-2.61a2.65,2.65,0,0,0-2.67,2.61Z" fill="#fff"/><path d="M132.22,161.4a2.67,2.67,0,0,1,2.72-2.7,2.7,2.7,0,1,1,0,5.4A2.66,2.66,0,0,1,132.22,161.4Z" fill="#fff"/></g><g id="Rect"><rect width="160" height="600" fill="none"/></g></g></svg>