<svg xmlns="http://www.w3.org/2000/svg" viewBox="0 0 200.23 200.24"><title>logo</title><g id="Layer_2" data-name="Layer 2"><g id="Layer_1-2" data-name="Layer 1"><rect width="200.23" height="200.24" fill="#14aa40"/><polygon points="15.02 105.88 25.89 105.88 25.89 118.23 34.82 118.23 34.82 105.88 45.68 105.88 45.68 140.59 34.82 140.59 34.82 128.15 25.89 128.15 25.89 140.59 15.02 140.59 15.02 105.88" fill="#fff"/><path d="M102,131.48H98.83v9.11H88V105.88h17.36c8.83,0,13.63,5.26,13.63,12.83,0,5-2.23,8.79-5.95,10.93l6.89,11H107.26Zm2.13-8.59a3.79,3.79,0,0,0,4-4.12c0-2.58-1.37-4.21-4-4.21H98.83v8.33Z" fill="#fff"/><path d="M15,150.33H33c6.49,0,10.31,3.77,10.31,9a8.31,8.31,0,0,1-4.55,7.79c4.16.93,6.68,3.76,6.68,8.08,0,5.86-4.26,9.87-12.19,9.87H15Zm15.37,13.55A2.59,2.59,0,0,0,33,161a2.55,2.55,0,0,0-2.63-2.67h-5v5.57Zm2.16,13.2a2.69,2.69,0,0,0,2.72-3,2.74,2.74,0,0,0-2.78-2.87H25.27v5.83Z" fill="#fff"/><polygon points="49.94 150.33 60.79 150.33 60.79 176.03 74.88 176.03 74.88 185.05 49.94 185.05 49.94 150.33" fill="#fff"/><path d="M77.74,169.87v-4.36c0-9.43,5.71-15.88,16.56-15.88s16.57,6.45,16.57,15.88v4.36c0,9.43-5.7,15.87-16.57,15.87s-16.56-6.44-16.56-15.87m22.28.64v-5.65c0-4-2-6.2-5.72-6.2s-5.7,2.18-5.7,6.2v5.65c0,4,2,6.2,5.7,6.2s5.72-2.19,5.72-6.2" fill="#fff"/><path d="M131,176.71c3.81,0,5.2-2.61,5.4-5.15h10.27c-.25,7.83-5.7,14.18-15.47,14.18-11.21,0-16.56-6.35-16.56-15.77v-4.56c0-9.43,5.35-15.78,16.56-15.78,9.77,0,15.22,6.35,15.47,14.2H136.4c-.2-2.54-1.59-5.17-5.4-5.17s-5.5,2.44-5.5,6.26v5.54c0,3.82,1.78,6.25,5.5,6.25" fill="#fff"/><path d="M185.44,152.43a2.88,2.88,0,1,1,2.88,2.79,2.75,2.75,0,0,1-2.88-2.79m5.14,0a2.26,2.26,0,1,0-2.26,2.26,2.14,2.14,0,0,0,2.26-2.26m-2.29.45h-.16v.67h-.77v-2.42h1.11c.64,0,1,.34,1,.88a.87.87,0,0,1-.36.73l.46.81h-.89Zm.08-.59a.27.27,0,0,0,.29-.28c0-.15-.1-.25-.29-.25h-.24v.53Z" fill="#fff"/><polygon points="152.58 150.33 163.44 150.33 163.44 162.41 164.13 162.41 171.18 150.33 183.36 150.33 174.26 165.99 184.39 185.05 171.47 185.05 164.3 170.59 163.44 170.59 163.44 185.05 152.58 185.05 152.58 150.33" fill="#fff"/><path d="M78.77,133.27a13.56,13.56,0,0,0,1.37-6.66v-5.42H72.46v5.08l-8-9a4.3,4.3,0,0,1-1.29-2.85,2.47,2.47,0,0,1,4.92.15v1.68h8.28v-2.18c0-5.5-4.56-8.87-10.92-8.87-6.89,0-11.32,3.62-11.32,9.08a8.18,8.18,0,0,0,2.82,6.06,10.4,10.4,0,0,0-6.29,9.5c0,6.9,5.42,11.46,15,11.46a15.67,15.67,0,0,0,8.55-2.36l1.53,1.66h9.67Zm-13.39.89c-2.36,0-5.62-1.37-5.62-4.58a5,5,0,0,1,2.36-4s5.67,6.38,6.87,7.66a7.18,7.18,0,0,1-3.61.95" fill="#fff"/></g></g></svg>