<svg xmlns="http://www.w3.org/2000/svg" viewBox="0 0 153 35"><title>file online now</title><g id="Layer_2" data-name="Layer 2"><g id="CTA"><g id="Rectangle_1" data-name="Rectangle 1"><rect width="153" height="35" fill="none"/></g><g id="File_online_now" data-name="File online now"><path d="M22.22,10.54h7.35v2H24.81v3h3.77v2H24.81V22H22.22Z" fill="#262626"/><path d="M30.57,11.21a1.32,1.32,0,1,1,1.31,1.26A1.27,1.27,0,0,1,30.57,11.21Zm.18,2.4h2.3V22h-2.3Z" fill="#262626"/><path d="M35,9.81h2.31V22H35Z" fill="#262626"/><path d="M38.67,17.9v-.13A4.15,4.15,0,0,1,43,13.42c2.16,0,4.09,1.26,4.09,4.25v.64H41a2,2,0,0,0,2.08,2.2c1.07,0,1.6-.47,1.75-1.17H47c-.27,1.81-1.71,2.82-4,2.82A4.07,4.07,0,0,1,38.67,17.9Zm6.13-1C44.72,15.62,44.08,15,43,15a1.92,1.92,0,0,0-1.92,1.87Z" fill="#262626"/><path d="M51.13,17.88v-.13a4.2,4.2,0,0,1,4.42-4.33A4.16,4.16,0,0,1,60,17.71v.12a4.41,4.41,0,0,1-8.82.05Zm6.47,0v-.11c0-1.6-.75-2.56-2.05-2.56s-2,.93-2,2.53v.12c0,1.6.74,2.56,2,2.56S57.6,19.43,57.6,17.85Z" fill="#262626"/><path d="M61.26,13.61h2.32v1.33a2.88,2.88,0,0,1,2.72-1.52c1.65,0,2.82,1,2.82,3.23V22H66.8V17c0-1.14-.45-1.69-1.47-1.69a1.66,1.66,0,0,0-1.75,1.85V22H61.26Z" fill="#262626"/><path d="M70.92,9.81h2.31V22H70.92Z" fill="#262626"/><path d="M75,11.21a1.32,1.32,0,1,1,1.31,1.26A1.27,1.27,0,0,1,75,11.21Zm.18,2.4h2.3V22h-2.3Z" fill="#262626"/><path d="M79.36,13.61h2.32v1.33a2.87,2.87,0,0,1,2.72-1.52c1.65,0,2.82,1,2.82,3.23V22H84.89V17c0-1.14-.44-1.69-1.47-1.69a1.66,1.66,0,0,0-1.74,1.85V22H79.36Z" fill="#262626"/><path d="M88.44,17.9v-.13a4.16,4.16,0,0,1,4.31-4.35c2.16,0,4.08,1.26,4.08,4.25v.64h-6a2,2,0,0,0,2.08,2.2c1.07,0,1.6-.47,1.74-1.17h2.2c-.28,1.81-1.72,2.82-4,2.82A4.07,4.07,0,0,1,88.44,17.9Zm6.13-1c-.08-1.27-.72-1.87-1.82-1.87a1.92,1.92,0,0,0-1.92,1.87Z" fill="#262626"/><path d="M101.42,13.61h2.32v1.33a2.88,2.88,0,0,1,2.72-1.52c1.65,0,2.82,1,2.82,3.23V22H107V17c0-1.14-.45-1.69-1.47-1.69a1.66,1.66,0,0,0-1.75,1.85V22h-2.32Z" fill="#262626"/><path d="M110.51,17.88v-.13a4.41,4.41,0,0,1,8.82,0v.12a4.41,4.41,0,0,1-8.82.05Zm6.46,0v-.11c0-1.6-.75-2.56-2-2.56s-2,.93-2,2.53v.12c0,1.6.73,2.56,2,2.56S117,19.43,117,17.85Z" fill="#262626"/><path d="M119.64,13.61h2.44l1.48,5.63,1.62-5.63h1.91l1.47,5.63,1.58-5.63h2.23L129.73,22h-2.28L126,16.73,124.49,22h-2.3Z" fill="#262626"/></g></g></g></svg>