<svg xmlns="http://www.w3.org/2000/svg" viewBox="0 0 119.66 31.81"><title>file_online_now</title><g data-name="Layer 2"><path fill="none" d="M0 0h119.66v31.81H0z" data-name="Rectangle 1"/><g data-name="File online now" fill="#262626"><path d="M12.55 9.81H19v1.78h-4.18v2.65h3.29V16h-3.29v3.88h-2.27zM19.86 10.4A1.16 1.16 0 1 1 21 11.5a1.11 1.11 0 0 1-1.14-1.1zm.14 2.1h2v7.33h-2zM23.74 9.18h2v10.65h-2zM26.94 16.25v-.11a3.64 3.64 0 0 1 3.77-3.81 3.38 3.38 0 0 1 3.57 3.73v.56H29c.06 1.22.71 1.92 1.82 1.92.94 0 1.4-.41 1.53-1h1.92C34 19.1 32.77 20 30.77 20a3.56 3.56 0 0 1-3.83-3.75zm5.37-.88c-.07-1.11-.63-1.64-1.6-1.64A1.68 1.68 0 0 0 29 15.37zM37.85 16.24v-.11a3.86 3.86 0 0 1 7.72-.05v.12A3.66 3.66 0 0 1 41.7 20a3.63 3.63 0 0 1-3.85-3.76zm5.66 0v-.1c0-1.4-.66-2.24-1.8-2.24s-1.79.81-1.79 2.21v.12c0 1.4.65 2.24 1.79 2.24s1.8-.87 1.8-2.26zM46.71 12.5h2v1.16a2.53 2.53 0 0 1 2.38-1.33c1.45 0 2.47.87 2.47 2.83v4.67h-2v-4.37c0-1-.4-1.48-1.29-1.48a1.46 1.46 0 0 0-1.53 1.61v4.24h-2zM55.17 9.18h2v10.65h-2zM58.72 10.4a1.16 1.16 0 0 1 2.31 0 1.16 1.16 0 0 1-2.31 0zm.16 2.1h2v7.33h-2zM62.54 12.5h2v1.16A2.55 2.55 0 0 1 67 12.33c1.44 0 2.46.87 2.46 2.83v4.67h-2v-4.37c0-1-.39-1.48-1.29-1.48a1.46 1.46 0 0 0-1.53 1.61v4.24h-2zM70.5 16.25v-.11a3.63 3.63 0 0 1 3.76-3.81 3.38 3.38 0 0 1 3.57 3.73v.56h-5.28a1.76 1.76 0 0 0 1.83 1.92c.93 0 1.4-.41 1.52-1h1.92c-.24 1.59-1.5 2.47-3.5 2.47a3.56 3.56 0 0 1-3.82-3.76zm5.36-.88c-.07-1.11-.63-1.64-1.6-1.64a1.68 1.68 0 0 0-1.68 1.64zM81.85 12.5h2v1.16a2.52 2.52 0 0 1 2.38-1.33c1.44 0 2.47.87 2.47 2.83v4.67h-2v-4.37c0-1-.4-1.48-1.29-1.48a1.46 1.46 0 0 0-1.53 1.61v4.24h-2zM89.8 16.24v-.11a3.68 3.68 0 0 1 3.87-3.8 3.63 3.63 0 0 1 3.85 3.75v.12a3.86 3.86 0 0 1-7.72 0zm5.66 0v-.1c0-1.4-.66-2.24-1.79-2.24s-1.8.81-1.8 2.21v.12c0 1.4.65 2.24 1.8 2.24s1.79-.87 1.79-2.26zM97.79 12.5h2.13l1.31 4.93 1.41-4.93h1.67l1.29 4.93 1.4-4.93h2l-2.31 7.33h-2l-1.25-4.6-1.44 4.6h-2z"/></g></g></svg>