<svg xmlns="http://www.w3.org/2000/svg" viewBox="0 0 728 90"><title>4_728x90</title><g id="Layer_2" data-name="Layer 2"><g id="headline2"><g id="Switch_and_save._H_R_Block_Deluxe:_29.99_TurboTax_Deluxe:_60" data-name="Switch and save. H&amp;R Block Deluxe: $29.99, TurboTax Deluxe: $60"><path d="M120.53,35.18h4.52c.11,1.18.64,2.15,2.61,2.15,1.37,0,2.13-.67,2.13-1.64s-.62-1.3-2.61-1.6c-4.68-.56-6.25-1.94-6.25-5.28,0-3,2.45-5.16,6.41-5.16s6.22,1.67,6.53,5.16h-4.4A1.88,1.88,0,0,0,127.34,27c-1.28,0-1.92.58-1.92,1.41s.51,1.34,2.57,1.62c4.19.46,6.34,1.55,6.34,5.14,0,3-2.41,5.51-6.67,5.51C123,40.71,120.67,38.77,120.53,35.18Z" fill="#fff"/><path d="M134.68,28.33H139l1.75,7.24,2-7.24h3.34l1.8,7.24,2-7.24h3.93L150,40.43h-4l-1.8-6.76-1.88,6.76h-4Z" fill="#fff"/><path d="M154.82,25a2.16,2.16,0,0,1,2.27-2.15,2.14,2.14,0,1,1,0,4.28A2.14,2.14,0,0,1,154.82,25Zm.21,3.29h4.14v12.1H155Z" fill="#fff"/><path d="M162,36.54V31.15h-1.46V28.33H162V25.8h4.14v2.53h2.38v2.82h-2.38v5a1.1,1.1,0,0,0,1.23,1.27,3.14,3.14,0,0,0,1.18-.21v3.15a8.61,8.61,0,0,1-2.29.35C163.48,40.71,162,39.39,162,36.54Z" fill="#fff"/><path d="M169.4,34.53v-.19c0-4,2.89-6.34,6.46-6.34,3,0,5.69,1.3,5.93,5H177.9a1.79,1.79,0,0,0-2-1.76c-1.46,0-2.31,1-2.31,3.08v.18c0,2.11.81,3.2,2.38,3.2a2,2,0,0,0,2.11-2h3.72c-.11,3.06-2.17,5.05-6.08,5.05C172.16,40.71,169.4,38.6,169.4,34.53Z" fill="#fff"/><path d="M183.2,23h4.14v7.27a4.28,4.28,0,0,1,4-2.27c2.34,0,4,1.46,4,4.56v7.87h-4.14v-7c0-1.37-.53-2-1.74-2s-2.06.74-2.06,2.29v6.78H183.2Z" fill="#fff"/><path d="M200.82,37.08c0-2.85,2.4-4,6.43-4h1.16v-.28c0-1.16-.28-1.92-1.6-1.92a1.48,1.48,0,0,0-1.64,1.43h-3.89c.18-2.91,2.48-4.35,5.79-4.35s5.46,1.37,5.46,4.58v7.85h-4V39a4,4,0,0,1-3.59,1.69C202.74,40.71,200.82,39.64,200.82,37.08Zm7.59-.88v-.74h-1.09c-1.67,0-2.41.32-2.41,1.31,0,.7.47,1.14,1.44,1.14C207.53,37.91,208.41,37.24,208.41,36.2Z" fill="#fff"/><path d="M214.54,28.33h4.15v1.94a4.26,4.26,0,0,1,4-2.27c2.34,0,4,1.46,4,4.56v7.87h-4.15v-7c0-1.37-.53-2-1.73-2s-2.06.74-2.06,2.29v6.78h-4.15Z" fill="#fff"/><path d="M228,34.51v-.19c0-4.12,2.27-6.32,5.14-6.32a3.9,3.9,0,0,1,3.72,2V23h4.15V40.43H236.9v-2a4.07,4.07,0,0,1-3.77,2.25C230.33,40.71,228,38.7,228,34.51Zm9-.07v-.19c0-2-.86-3.12-2.38-3.12s-2.39,1-2.39,3.14v.19c0,2,.9,3.08,2.34,3.08S237,36.5,237,34.44Z" fill="#fff"/><path d="M246.56,36.59h3.82c.14.88.53,1.37,1.71,1.37,1,0,1.48-.4,1.48-1s-.58-.86-2.24-1.09c-3.24-.41-4.61-1.36-4.61-3.89,0-2.68,2.39-4,5.19-4,3,0,5.07,1,5.34,3.91H253.5a1.35,1.35,0,0,0-1.55-1.2c-.9,0-1.36.39-1.36.95s.55.81,2,1c3.36.42,5,1.3,5,3.89,0,2.87-2.13,4.17-5.49,4.17S246.65,39.27,246.56,36.59Z" fill="#fff"/><path d="M258.25,37.08c0-2.85,2.41-4,6.43-4h1.16v-.28c0-1.16-.28-1.92-1.59-1.92a1.49,1.49,0,0,0-1.65,1.43h-3.89c.19-2.91,2.48-4.35,5.79-4.35S270,29.37,270,32.58v7.85h-4V39a4,4,0,0,1-3.58,1.69C260.17,40.71,258.25,39.64,258.25,37.08Zm7.59-.88v-.74h-1.09c-1.66,0-2.4.32-2.4,1.31,0,.7.46,1.14,1.43,1.14C265,37.91,265.84,37.24,265.84,36.2Z" fill="#fff"/><path d="M270.59,28.33H275l2.52,7.8,2.48-7.8h4l-4.42,12.1H275Z" fill="#fff"/><path d="M283.71,34.53v-.19A6.2,6.2,0,0,1,290.27,28c3.31,0,6.15,1.9,6.15,6.25v1.09H287.9a2.42,2.42,0,0,0,2.53,2.52c1.36,0,1.94-.62,2.1-1.43h3.89c-.37,2.73-2.47,4.28-6.13,4.28S283.71,38.49,283.71,34.53ZM292.39,33c-.06-1.46-.78-2.27-2.12-2.27A2.31,2.31,0,0,0,288,33Z" fill="#fff"/><path d="M297.58,38.35A2.31,2.31,0,0,1,299.94,36a2.34,2.34,0,1,1,0,4.68A2.32,2.32,0,0,1,297.58,38.35Z" fill="#fff"/><path d="M308.9,23.88h4.77V30.2h5.44V23.88h4.74V40.43h-4.74V33.9h-5.44v6.53H308.9Z" fill="#fff"/><path d="M339.74,37.05l2.75,3.38H337.1l-1-1.2a6.59,6.59,0,0,1-4.46,1.48c-3.52,0-5.81-1.85-5.81-5,0-2.13,1.29-3.7,3.63-4.81a5.28,5.28,0,0,1-1-2.9c0-2.82,2.41-4.33,5.33-4.33,2.64,0,5,1.32,5,3.87,0,1.8-1.07,3.12-3.31,4.1l2.08,2.54,1.21-2.36h3.61ZM334,36.57l-2.61-3.15a2,2,0,0,0-1.11,1.78,1.92,1.92,0,0,0,2.1,2.06A2.15,2.15,0,0,0,334,36.57Zm-.5-6.67c1.11-.53,1.64-1.16,1.64-2a1.2,1.2,0,0,0-1.23-1.28,1.32,1.32,0,0,0-1.36,1.44A3,3,0,0,0,333.49,29.9Z" fill="#fff"/><path d="M344,23.88h6.48c4.33,0,6.73,1.76,6.73,5.26v.09a4.33,4.33,0,0,1-3,4.35l4,6.85h-5l-3.36-5.92h-1.11v5.92H344Zm6.25,7.55c1.59,0,2.38-.67,2.38-2v-.09c0-1.34-.83-1.87-2.36-1.87h-1.55v4Z" fill="#fff"/><path d="M364,23.88h7.38c3.91,0,5.58,1.76,5.58,4.33v.09a3.42,3.42,0,0,1-2.8,3.57,3.59,3.59,0,0,1,3.31,3.86v.1c0,3-1.92,4.6-6,4.6H364Zm6.43,6.58c1.48,0,2-.51,2-1.69v-.1c0-1.13-.6-1.64-2-1.64h-1.8v3.43Zm.16,6.8c1.51,0,2.2-.69,2.2-1.92v-.09c0-1.25-.67-1.9-2.33-1.9h-1.83v3.91Z" fill="#fff"/><path d="M379.11,23h4.12V40.43h-4.12Z" fill="#fff"/><path d="M384.81,34.53v-.19c0-3.88,2.89-6.34,6.64-6.34s6.6,2.39,6.6,6.23v.18c0,3.94-2.89,6.3-6.62,6.3S384.81,38.44,384.81,34.53Zm9-.07v-.19c0-2-.81-3.17-2.39-3.17S389,32.19,389,34.23v.18c0,2.09.81,3.22,2.41,3.22S393.84,36.47,393.84,34.46Z" fill="#fff"/><path d="M398.86,34.53v-.19c0-4,2.89-6.34,6.46-6.34,3,0,5.69,1.3,5.92,5h-3.88a1.79,1.79,0,0,0-1.95-1.76c-1.46,0-2.31,1-2.31,3.08v.18c0,2.11.81,3.2,2.38,3.2a2,2,0,0,0,2.11-2h3.72c-.11,3.06-2.17,5.05-6.08,5.05C401.62,40.71,398.86,38.6,398.86,34.53Z" fill="#fff"/><path d="M412.66,23h4.14V33.12l3.27-4.79h4.3l-4,5.44,4.28,6.66h-4.62l-3.27-5.3v5.3h-4.14Z" fill="#fff"/><path d="M121.6,49h6c5.88,0,8.86,2.94,8.86,8.08v.18c0,5.17-3,8.29-8.89,8.29h-6Zm5.85,12.89c2.83,0,4.08-1.48,4.08-4.56v-.18c0-3.15-1.25-4.49-4.12-4.49h-1v9.23Z" fill="#fff"/><path d="M137.43,59.68v-.19A6.2,6.2,0,0,1,144,53.15c3.31,0,6.16,1.9,6.16,6.25v1.09h-8.52A2.41,2.41,0,0,0,144.14,63c1.37,0,2-.62,2.11-1.43h3.89c-.37,2.73-2.48,4.28-6.13,4.28S137.43,63.64,137.43,59.68Zm8.68-1.53c-.07-1.46-.78-2.27-2.13-2.27a2.3,2.3,0,0,0-2.31,2.27Z" fill="#fff"/><path d="M151.69,48.15h4.12V65.58h-4.12Z" fill="#fff"/><path d="M157.94,61.37V53.48h4.15V60.7c0,1.36.53,2,1.71,2s2.06-.74,2.06-2.29v-7H170v12.1h-4.14V63.71A4,4,0,0,1,162,65.86C159.68,65.86,157.94,64.42,157.94,61.37Z" fill="#fff"/><path d="M175.17,59.42l-3.78-5.94h4.77L178,56.67l1.82-3.19h4.26L180.3,59.1l4.19,6.48h-4.76L177.57,62l-2.2,3.61h-4.23Z" fill="#fff"/><path d="M184,59.68v-.19a6.2,6.2,0,0,1,6.55-6.34c3.31,0,6.16,1.9,6.16,6.25v1.09h-8.52A2.42,2.42,0,0,0,190.68,63c1.36,0,1.94-.62,2.1-1.43h3.89c-.37,2.73-2.48,4.28-6.13,4.28S184,63.64,184,59.68Zm8.68-1.53c-.07-1.46-.78-2.27-2.13-2.27a2.3,2.3,0,0,0-2.31,2.27Z" fill="#fff"/><path d="M198,56.88a2.32,2.32,0,0,1,2.37-2.34,2.34,2.34,0,1,1,0,4.68A2.31,2.31,0,0,1,198,56.88Zm0,6.62a2.32,2.32,0,0,1,2.37-2.34,2.34,2.34,0,1,1,0,4.68A2.33,2.33,0,0,1,198,63.5Z" fill="#fff"/><path d="M210.31,58c-2.34-.16-3.47-1.41-3.57-3.19h2.5a1.28,1.28,0,0,0,1.07,1.27v-2C208,53.78,207,52.93,207,51.05c0-1.63,1.28-2.81,3.35-2.95V46.89h1.05v1.22c2,.16,3.12,1.07,3.28,2.92H212.2a1.09,1.09,0,0,0-.84-1v1.87c2.07.29,3.42,1,3.42,2.95,0,1.65-1.07,3-3.42,3.18V59.7h-1.05Zm0-6.3V50c-.61.1-.92.43-.92.86S209.58,51.57,210.31,51.71Zm1.05,2.58v1.8a1,1,0,0,0,.9-1C212.26,54.69,212.08,54.46,211.36,54.29Z" fill="#fff"/><path d="M215.13,64.91l5.79-6.13c1.64-1.76,2.73-3.17,2.73-4.56a1.65,1.65,0,0,0-1.76-1.86c-1.18,0-1.92.72-2.13,2.69h-4.3c.16-4.14,2.66-6.25,6.66-6.25S228.33,51,228.33,54c0,2.27-1.28,4-3.13,5.76L222.89,62h5.55v3.54H215.13Z" fill="#fff"/><path d="M229.76,60.91h4.35c.17.83.68,1.41,1.95,1.41,2,0,2.78-1.48,2.85-4.31a4,4,0,0,1-3.75,2c-3.18,0-5.61-1.83-5.61-5.35s2.6-5.83,6.81-5.83c4.93,0,7.24,3.31,7.24,8.1v.55c0,5.37-2.59,8.41-7.31,8.41C232.38,65.84,230.11,64.08,229.76,60.91Zm8.8-6.32a2.25,2.25,0,0,0-2.27-2.48,2.22,2.22,0,0,0-2.2,2.43,2.15,2.15,0,0,0,2.2,2.36A2.19,2.19,0,0,0,238.56,54.59Z" fill="#fff"/><path d="M244,63.5a2.3,2.3,0,0,1,2.36-2.34,2.34,2.34,0,1,1,0,4.68A2.31,2.31,0,0,1,244,63.5Z" fill="#fff"/><path d="M249.65,60.91H254c.16.83.67,1.41,1.94,1.41,2,0,2.78-1.48,2.85-4.31A3.94,3.94,0,0,1,255,60c-3.17,0-5.6-1.83-5.6-5.35s2.59-5.83,6.81-5.83c4.93,0,7.24,3.31,7.24,8.1v.55c0,5.37-2.59,8.41-7.31,8.41C252.26,65.84,250,64.08,249.65,60.91Zm8.79-6.32a2.25,2.25,0,0,0-2.26-2.48,2.22,2.22,0,0,0-2.2,2.43,2.15,2.15,0,0,0,2.2,2.36A2.19,2.19,0,0,0,258.44,54.59Z" fill="#fff"/><path d="M264.7,60.91h4.35c.16.83.67,1.41,1.94,1.41,2,0,2.78-1.48,2.85-4.31a3.94,3.94,0,0,1-3.75,2c-3.17,0-5.6-1.83-5.6-5.35s2.59-5.83,6.8-5.83c4.93,0,7.25,3.31,7.25,8.1v.55c0,5.37-2.59,8.41-7.32,8.41C267.31,65.84,265,64.08,264.7,60.91Zm8.79-6.32a2.25,2.25,0,0,0-2.27-2.48,2.22,2.22,0,0,0-2.2,2.43,2.16,2.16,0,0,0,2.2,2.36A2.19,2.19,0,0,0,273.49,54.59Z" fill="#fff"/><path d="M278.22,67.46l1.94-6.09L284,62.73l-3.33,5.68Z" fill="#fff"/><path d="M291.71,52.69h-4.28V49h13.33v3.66h-4.28V65.58h-4.77Z" fill="#fff"/><path d="M301.13,61.37V53.48h4.15V60.7c0,1.36.53,2,1.71,2s2.06-.74,2.06-2.29v-7h4.14v12.1h-4.14V63.71a4,4,0,0,1-3.84,2.15C302.87,65.86,301.13,64.42,301.13,61.37Z" fill="#fff"/><path d="M315.3,53.48h4.14v2.4a3.84,3.84,0,0,1,3.92-2.57v3.87c-2.53-.07-3.92.72-3.92,2.66v5.74H315.3Z" fill="#fff"/><path d="M329,63.71v1.87h-4.15V48.15H329v7.13a4.26,4.26,0,0,1,3.77-2.13c2.82,0,5.11,2.13,5.11,6.27v.19c0,4.17-2.29,6.25-5.13,6.25A3.93,3.93,0,0,1,329,63.71Zm4.67-4.1v-.19c0-2.13-.92-3.14-2.38-3.14s-2.41,1.08-2.41,3.12v.19c0,2.06.9,3.1,2.41,3.1S333.68,61.6,333.68,59.61Z" fill="#fff"/><path d="M338.75,59.68v-.19c0-3.88,2.9-6.34,6.65-6.34S352,55.54,352,59.38v.18c0,3.94-2.89,6.3-6.62,6.3S338.75,63.59,338.75,59.68Zm9-.07v-.19c0-2-.81-3.17-2.38-3.17S343,57.34,343,59.38v.18c0,2.09.81,3.22,2.41,3.22S347.78,61.62,347.78,59.61Z" fill="#fff"/><path d="M357,52.69h-4.28V49H366v3.66h-4.28V65.58H357Z" fill="#fff"/><path d="M365.21,62.23c0-2.85,2.41-4,6.44-4h1.15V58c0-1.16-.27-1.92-1.59-1.92a1.49,1.49,0,0,0-1.65,1.43h-3.88c.18-2.91,2.47-4.35,5.78-4.35s5.46,1.37,5.46,4.58v7.85h-4V64.17a4,4,0,0,1-3.59,1.69C367.13,65.86,365.21,64.79,365.21,62.23Zm7.59-.88v-.74h-1.08c-1.67,0-2.41.32-2.41,1.31,0,.7.46,1.14,1.44,1.14A1.81,1.81,0,0,0,372.8,61.35Z" fill="#fff"/><path d="M382,59.42l-3.78-5.94H383l1.88,3.19,1.82-3.19H391l-3.82,5.62,4.19,6.48h-4.76L384.4,62l-2.2,3.61H378Z" fill="#fff"/><path d="M397.07,49h6C409,49,412,52,412,57.11v.18c0,5.17-3.06,8.29-8.89,8.29h-6Zm5.85,12.89c2.83,0,4.08-1.48,4.08-4.56v-.18c0-3.15-1.25-4.49-4.12-4.49h-1.05v9.23Z" fill="#fff"/><path d="M412.9,59.68v-.19a6.19,6.19,0,0,1,6.55-6.34c3.31,0,6.16,1.9,6.16,6.25v1.09h-8.52A2.41,2.41,0,0,0,419.61,63c1.37,0,1.95-.62,2.11-1.43h3.89c-.37,2.73-2.48,4.28-6.14,4.28S412.9,63.64,412.9,59.68Zm8.68-1.53c-.07-1.46-.79-2.27-2.13-2.27a2.29,2.29,0,0,0-2.31,2.27Z" fill="#fff"/><path d="M427.16,48.15h4.12V65.58h-4.12Z" fill="#fff"/><path d="M433.41,61.37V53.48h4.14V60.7c0,1.36.54,2,1.72,2s2.06-.74,2.06-2.29v-7h4.14v12.1h-4.14V63.71a4,4,0,0,1-3.84,2.15C435.15,65.86,433.41,64.42,433.41,61.37Z" fill="#fff"/><path d="M450.63,59.42l-3.77-5.94h4.77l1.87,3.19,1.83-3.19h4.26l-3.82,5.62L460,65.58h-4.77L453,62l-2.2,3.61h-4.23Z" fill="#fff"/><path d="M459.43,59.68v-.19A6.2,6.2,0,0,1,466,53.15c3.31,0,6.16,1.9,6.16,6.25v1.09h-8.52A2.41,2.41,0,0,0,466.14,63c1.37,0,1.95-.62,2.11-1.43h3.89c-.37,2.73-2.48,4.28-6.14,4.28S459.43,63.64,459.43,59.68Zm8.68-1.53c-.07-1.46-.79-2.27-2.13-2.27a2.3,2.3,0,0,0-2.31,2.27Z" fill="#fff"/><path d="M473.48,56.88a2.32,2.32,0,0,1,2.36-2.34,2.34,2.34,0,1,1,0,4.68A2.31,2.31,0,0,1,473.48,56.88Zm0,6.62a2.32,2.32,0,0,1,2.36-2.34,2.34,2.34,0,1,1-2.36,2.34Z" fill="#fff"/><path d="M484.39,58c-2.34-.16-3.47-1.41-3.57-3.19h2.5a1.28,1.28,0,0,0,1.07,1.27v-2C482,53.78,481,52.93,481,51.05c0-1.63,1.28-2.81,3.35-2.95V46.89h1.05v1.22c2,.16,3.12,1.07,3.28,2.92h-2.44a1.09,1.09,0,0,0-.84-1v1.87c2.07.29,3.42,1,3.42,2.95,0,1.65-1.07,3-3.42,3.18V59.7h-1.05Zm0-6.3V50c-.61.1-.92.43-.92.86S483.66,51.57,484.39,51.71Zm1.05,2.58v1.8a1,1,0,0,0,.9-1C486.34,54.69,486.16,54.46,485.44,54.29Z" fill="#fff"/><path d="M489.86,57.76v-.44c0-5.4,3.22-8.52,7.43-8.52,3.73,0,5.93,1.64,6.27,4.88h-4.35a1.55,1.55,0,0,0-1.76-1.39c-1.8,0-2.8,1.58-2.89,4.38a4.16,4.16,0,0,1,3.86-1.92c3,0,5.49,1.83,5.49,5.3s-2.55,5.81-6.76,5.81C491.87,65.86,489.86,62.48,489.86,57.76Zm9.44,2.34a2.17,2.17,0,0,0-2.19-2.39,2.4,2.4,0,1,0,2.19,2.39Z" fill="#fff"/><path d="M505,57.67V57c0-5.23,3.26-8.17,7.64-8.17s7.64,2.71,7.64,8.08v.65c0,5.25-3,8.33-7.73,8.33S505,62.87,505,57.67Zm10.53-.05V57c0-3-.88-4.56-2.89-4.56s-2.89,1.5-2.89,4.56v.69c0,3.08.9,4.54,2.94,4.54S515.53,60.67,515.53,57.62Z" fill="#fff"/><path d="M520.67,63.5A2.31,2.31,0,0,1,523,61.16a2.34,2.34,0,1,1,0,4.68A2.32,2.32,0,0,1,520.67,63.5Z" fill="#fff"/></g><g id="Rect"><rect width="728" height="90" fill="none"/></g></g></g></svg>