<svg xmlns="http://www.w3.org/2000/svg" viewBox="0 0 728 90"><title>txt</title><g id="Layer_2" data-name="Layer 2"><g id="headline4"><g id="Switch_and_save._H_R_Block_Premium:_49.99_TurboTax_Premier:_" data-name="Switch and save. H&amp;R Block Premium: $49.99, TurboTax Premier: $"><path d="M120.52,35H125c.11,1.16.64,2.11,2.57,2.11,1.34,0,2.09-.66,2.09-1.61s-.61-1.28-2.57-1.57c-4.59-.55-6.14-1.91-6.14-5.19,0-2.94,2.41-5.07,6.3-5.07s6.12,1.63,6.42,5.07h-4.32a1.85,1.85,0,0,0-2.1-1.75c-1.25,0-1.89.57-1.89,1.39s.5,1.32,2.53,1.59c4.12.45,6.23,1.52,6.23,5.05,0,3-2.36,5.41-6.55,5.41C123,40.4,120.66,38.49,120.52,35Z" fill="#fff"/><path d="M134.42,28.23h4.26l1.73,7.12,2-7.12h3.28l1.77,7.12,1.93-7.12h3.87l-3.78,11.9h-3.89l-1.77-6.64L142,40.13h-4Z" fill="#fff"/><path d="M154.22,25a2.12,2.12,0,0,1,2.23-2.11A2.14,2.14,0,0,1,158.7,25a2.12,2.12,0,0,1-2.25,2.09A2.1,2.1,0,0,1,154.22,25Zm.2,3.23h4.07v11.9h-4.07Z" fill="#fff"/><path d="M161.22,36.31V31h-1.43V28.23h1.43V25.75h4.07v2.48h2.35V31h-2.35v4.91a1.09,1.09,0,0,0,1.21,1.25,3.2,3.2,0,0,0,1.16-.2v3.09a8.4,8.4,0,0,1-2.25.34C162.72,40.4,161.22,39.11,161.22,36.31Z" fill="#fff"/><path d="M168.55,34.33v-.18a6,6,0,0,1,6.35-6.24c2.91,0,5.59,1.28,5.82,4.89H176.9A1.75,1.75,0,0,0,175,31.08c-1.44,0-2.28,1-2.28,3v.18c0,2.07.8,3.14,2.34,3.14a2,2,0,0,0,2.08-2h3.66c-.12,3-2.14,5-6,5C171.26,40.4,168.55,38.33,168.55,34.33Z" fill="#fff"/><path d="M182.11,23h4.07v7.14a4.2,4.2,0,0,1,3.91-2.23c2.3,0,3.89,1.44,3.89,4.49v7.73h-4.07V33.21c0-1.34-.52-2-1.71-2s-2,.73-2,2.25v6.67h-4.07Z" fill="#fff"/><path d="M199.42,36.83c0-2.8,2.37-3.89,6.32-3.89h1.14v-.27c0-1.14-.27-1.89-1.57-1.89a1.46,1.46,0,0,0-1.61,1.41h-3.83c.19-2.87,2.44-4.28,5.69-4.28s5.37,1.35,5.37,4.51v7.71h-4V38.74a3.89,3.89,0,0,1-3.52,1.66C201.31,40.4,199.42,39.36,199.42,36.83Zm7.46-.86v-.73h-1.07c-1.64,0-2.36.32-2.36,1.3,0,.68.45,1.11,1.41,1.11A1.79,1.79,0,0,0,206.88,36Z" fill="#fff"/><path d="M212.91,28.23H217v1.91a4.21,4.21,0,0,1,3.92-2.23c2.29,0,3.89,1.44,3.89,4.49v7.73h-4.08V33.21c0-1.34-.52-2-1.7-2s-2,.73-2,2.25v6.67h-4.07Z" fill="#fff"/><path d="M226.17,34.31v-.19c0-4,2.23-6.21,5.05-6.21a3.87,3.87,0,0,1,3.67,2V23H239V40.13h-4.07V38.2a4,4,0,0,1-3.71,2.2C228.42,40.4,226.17,38.42,226.17,34.31Zm8.83-.07v-.18c0-2-.84-3.08-2.34-3.08s-2.35,1-2.35,3.1v.18c0,2,.89,3,2.3,3S235,36.26,235,34.24Z" fill="#fff"/><path d="M244.37,36.35h3.76c.13.87.52,1.35,1.68,1.35,1,0,1.46-.39,1.46-1s-.57-.84-2.21-1.07c-3.19-.41-4.53-1.34-4.53-3.82,0-2.64,2.35-3.92,5.1-3.92,2.93,0,5,1,5.25,3.85H251.2a1.33,1.33,0,0,0-1.53-1.18c-.88,0-1.34.38-1.34.93s.55.79,2,1c3.3.41,4.89,1.27,4.89,3.82,0,2.82-2.09,4.09-5.39,4.09S244.46,39,244.37,36.35Z" fill="#fff"/><path d="M255.86,36.83c0-2.8,2.37-3.89,6.33-3.89h1.13v-.27c0-1.14-.27-1.89-1.57-1.89a1.46,1.46,0,0,0-1.61,1.41h-3.82c.18-2.87,2.43-4.28,5.68-4.28s5.37,1.35,5.37,4.51v7.71h-4V38.74a3.87,3.87,0,0,1-3.52,1.66C257.75,40.4,255.86,39.36,255.86,36.83Zm7.46-.86v-.73h-1.07c-1.63,0-2.36.32-2.36,1.3,0,.68.45,1.11,1.41,1.11A1.79,1.79,0,0,0,263.32,36Z" fill="#fff"/><path d="M268,28.23h4.34l2.48,7.67,2.44-7.67h3.89l-4.35,11.9h-4.44Z" fill="#fff"/><path d="M280.89,34.33v-.18a6.08,6.08,0,0,1,6.43-6.24c3.26,0,6.06,1.87,6.06,6.15v1.07H285a2.37,2.37,0,0,0,2.48,2.47c1.35,0,1.91-.61,2.07-1.41h3.83c-.37,2.69-2.44,4.21-6,4.21S280.89,38.22,280.89,34.33Zm8.53-1.5c-.07-1.44-.78-2.23-2.1-2.23a2.26,2.26,0,0,0-2.27,2.23Z" fill="#fff"/><path d="M294.51,38.08a2.27,2.27,0,0,1,2.32-2.29,2.3,2.3,0,1,1,0,4.59A2.27,2.27,0,0,1,294.51,38.08Z" fill="#fff"/><path d="M305.64,23.86h4.68v6.21h5.35V23.86h4.66V40.13h-4.66V33.71h-5.35v6.42h-4.68Z" fill="#fff"/><path d="M335.94,36.81l2.71,3.32h-5.3l-1-1.18A6.45,6.45,0,0,1,328,40.4c-3.46,0-5.71-1.82-5.71-4.91,0-2.09,1.27-3.64,3.57-4.73a5.23,5.23,0,0,1-1-2.85c0-2.77,2.37-4.25,5.23-4.25,2.6,0,4.94,1.3,4.94,3.8,0,1.77-1,3.07-3.25,4l2,2.5L335,31.67h3.55Zm-5.64-.48-2.57-3.09A1.91,1.91,0,0,0,326.64,35a1.88,1.88,0,0,0,2.07,2A2.11,2.11,0,0,0,330.3,36.33Zm-.5-6.55c1.09-.52,1.61-1.14,1.61-2a1.16,1.16,0,0,0-1.2-1.25A1.29,1.29,0,0,0,328.87,28,3,3,0,0,0,329.8,29.78Z" fill="#fff"/><path d="M340.13,23.86h6.37c4.25,0,6.62,1.73,6.62,5.17v.09a4.26,4.26,0,0,1-2.94,4.28l3.89,6.73h-4.91l-3.3-5.82h-1.09v5.82h-4.64Zm6.14,7.42c1.57,0,2.34-.66,2.34-2v-.09c0-1.32-.82-1.84-2.32-1.84h-1.52v3.91Z" fill="#fff"/><path d="M359.78,23.86H367c3.84,0,5.48,1.73,5.48,4.26v.09a3.35,3.35,0,0,1-2.75,3.5,3.53,3.53,0,0,1,3.25,3.8v.09c0,2.92-1.89,4.53-5.91,4.53h-7.33Zm6.33,6.46c1.45,0,2-.5,2-1.66v-.09c0-1.11-.59-1.61-2-1.61h-1.78v3.36Zm.16,6.69c1.47,0,2.16-.68,2.16-1.88V35c0-1.22-.66-1.86-2.3-1.86h-1.8V37Z" fill="#fff"/><path d="M374.64,23h4.05V40.13h-4.05Z" fill="#fff"/><path d="M380.23,34.33v-.18c0-3.83,2.85-6.24,6.53-6.24s6.49,2.35,6.49,6.12v.19c0,3.86-2.85,6.18-6.51,6.18S380.23,38.17,380.23,34.33Zm8.88-.07v-.18c0-2-.8-3.12-2.35-3.12S384.4,32,384.4,34v.19c0,2,.79,3.16,2.36,3.16S389.11,36.24,389.11,34.26Z" fill="#fff"/><path d="M394,34.33v-.18a6,6,0,0,1,6.35-6.24c2.91,0,5.6,1.28,5.82,4.89h-3.82a1.75,1.75,0,0,0-1.91-1.72c-1.43,0-2.27,1-2.27,3v.18c0,2.07.79,3.14,2.34,3.14a2,2,0,0,0,2.07-2h3.66c-.11,3-2.14,5-6,5C396.75,40.4,394,38.33,394,34.33Z" fill="#fff"/><path d="M407.6,23h4.07v9.94l3.21-4.71h4.23l-3.89,5.35,4.21,6.55h-4.55l-3.21-5.21v5.21H407.6Z" fill="#fff"/><path d="M121.57,48.61h6.19c4.46,0,6.53,2,6.53,5.44v.09c0,3.41-2.3,5.26-6.33,5.26h-1.75v5.48h-4.64Zm6,7.6c1.5,0,2.3-.7,2.3-2v-.1c0-1.38-.82-2-2.27-2h-1.37v4.09Z" fill="#fff"/><path d="M135.7,53h4.07v2.37a3.75,3.75,0,0,1,3.84-2.53v3.8c-2.48-.07-3.84.71-3.84,2.62v5.64H135.7Z" fill="#fff"/><path d="M144.34,59.08V58.9a6.1,6.1,0,0,1,6.44-6.24c3.25,0,6.05,1.87,6.05,6.15v1.07h-8.37a2.37,2.37,0,0,0,2.48,2.48c1.34,0,1.91-.62,2.07-1.42h3.82c-.36,2.69-2.43,4.21-6,4.21S144.34,63,144.34,59.08Zm8.53-1.5c-.06-1.44-.77-2.23-2.09-2.23a2.25,2.25,0,0,0-2.27,2.23Z" fill="#fff"/><path d="M158.24,53h4.07V54.8a4.17,4.17,0,0,1,3.74-2.14,3.25,3.25,0,0,1,3.23,2,4.7,4.7,0,0,1,3.93-2c2.25,0,3.89,1.46,3.89,4.44v7.78H173v-7.1c0-1.2-.59-1.79-1.52-1.79a1.76,1.76,0,0,0-1.82,2v6.89h-4v-7.1c0-1.2-.59-1.79-1.53-1.79a1.76,1.76,0,0,0-1.82,2v6.89h-4.07Z" fill="#fff"/><path d="M179,49.75a2.25,2.25,0,1,1,2.23,2.09A2.11,2.11,0,0,1,179,49.75ZM179.2,53h4.07v11.9H179.2Z" fill="#fff"/><path d="M185.36,60.74V53h4.07v7.1c0,1.34.53,2,1.69,2s2-.73,2-2.25V53h4.07v11.9h-4.07V63a3.91,3.91,0,0,1-3.78,2.11C187.07,65.15,185.36,63.74,185.36,60.74Z" fill="#fff"/><path d="M199.28,53h4.08V54.8a4.14,4.14,0,0,1,3.73-2.14,3.25,3.25,0,0,1,3.23,2,4.7,4.7,0,0,1,3.93-2c2.26,0,3.89,1.46,3.89,4.44v7.78h-4.07v-7.1c0-1.2-.59-1.79-1.52-1.79a1.76,1.76,0,0,0-1.82,2v6.89h-4v-7.1c0-1.2-.59-1.79-1.52-1.79a1.76,1.76,0,0,0-1.82,2v6.89h-4.08Z" fill="#fff"/><path d="M220,56.33a2.28,2.28,0,0,1,2.32-2.3,2.3,2.3,0,1,1,0,4.59A2.27,2.27,0,0,1,220,56.33Zm0,6.5a2.28,2.28,0,0,1,2.32-2.29,2.3,2.3,0,1,1,0,4.59A2.28,2.28,0,0,1,220,62.83Z" fill="#fff"/><path d="M232.56,57.44c-2.29-.16-3.41-1.38-3.5-3.13h2.46a1.23,1.23,0,0,0,1,1.24V53.62c-2.3-.33-3.29-1.17-3.29-3,0-1.61,1.26-2.76,3.29-2.9V46.52h1v1.2c1.92.16,3.06,1.05,3.22,2.86h-2.4a1.05,1.05,0,0,0-.82-1v1.83c2,.29,3.35,1,3.35,2.9,0,1.62-1,3-3.35,3.12v1.65h-1Zm0-6.18v-1.7c-.59.11-.9.43-.9.85S231.85,51.11,232.56,51.26Zm1,2.53v1.76a1,1,0,0,0,.89-.94C234.49,54.18,234.3,54,233.6,53.79Z" fill="#fff"/><path d="M245.45,61.76h-7.91V60l6.78-11.4h5.62v10H252v3.2h-2.09v3.12h-4.49Zm.12-3.2V52.12l-3.64,6.44Z" fill="#fff"/><path d="M253.12,60.29h4.28c.16.81.66,1.38,1.91,1.38,1.93,0,2.73-1.45,2.8-4.23a3.88,3.88,0,0,1-3.69,1.91c-3.12,0-5.51-1.8-5.51-5.25s2.55-5.74,6.69-5.74c4.85,0,7.12,3.26,7.12,8v.54c0,5.28-2.54,8.26-7.18,8.26C255.69,65.13,253.46,63.4,253.12,60.29Zm8.64-6.22a2.2,2.2,0,1,0-4.39,0,2.13,2.13,0,0,0,2.17,2.32A2.16,2.16,0,0,0,261.76,54.07Z" fill="#fff"/><path d="M267.09,62.83a2.27,2.27,0,0,1,2.32-2.29,2.3,2.3,0,1,1,0,4.59A2.27,2.27,0,0,1,267.09,62.83Z" fill="#fff"/><path d="M272.66,60.29h4.28c.16.81.66,1.38,1.91,1.38,1.93,0,2.73-1.45,2.8-4.23A3.88,3.88,0,0,1,278,59.35c-3.11,0-5.5-1.8-5.5-5.25s2.54-5.74,6.69-5.74c4.84,0,7.12,3.26,7.12,8v.54c0,5.28-2.55,8.26-7.19,8.26C275.23,65.13,273,63.4,272.66,60.29Zm8.65-6.22a2.21,2.21,0,0,0-2.23-2.43A2.18,2.18,0,0,0,276.92,54a2.12,2.12,0,0,0,2.16,2.32A2.17,2.17,0,0,0,281.31,54.07Z" fill="#fff"/><path d="M287.45,60.29h4.28c.16.81.66,1.38,1.91,1.38,1.93,0,2.73-1.45,2.8-4.23a3.88,3.88,0,0,1-3.69,1.91c-3.12,0-5.51-1.8-5.51-5.25s2.55-5.74,6.69-5.74c4.85,0,7.12,3.26,7.12,8v.54c0,5.28-2.54,8.26-7.19,8.26C290,65.13,287.79,63.4,287.45,60.29Zm8.64-6.22a2.2,2.2,0,1,0-4.39,0,2.12,2.12,0,0,0,2.16,2.32A2.16,2.16,0,0,0,296.09,54.07Z" fill="#fff"/><path d="M300.73,66.72l1.92-6,3.77,1.34-3.27,5.58Z" fill="#fff"/><path d="M315.82,52.21h-4.21v-3.6h13.1v3.6H320.5V64.88h-4.68Z" fill="#fff"/><path d="M325.08,60.74V53h4.07v7.1c0,1.34.52,2,1.68,2s2-.73,2-2.25V53h4.07v11.9h-4.07V63a3.91,3.91,0,0,1-3.78,2.11C326.78,65.15,325.08,63.74,325.08,60.74Z" fill="#fff"/><path d="M339,53h4.07v2.37a3.75,3.75,0,0,1,3.85-2.53v3.8c-2.48-.07-3.85.71-3.85,2.62v5.64H339Z" fill="#fff"/><path d="M352.47,63v1.84H348.4V47.75h4.07v7a4.2,4.2,0,0,1,3.71-2.1c2.77,0,5,2.1,5,6.17V59c0,4.1-2.25,6.14-5.05,6.14A3.85,3.85,0,0,1,352.47,63Zm4.59-4v-.18c0-2.09-.91-3.1-2.34-3.1s-2.37,1.07-2.37,3.08V59c0,2,.89,3,2.37,3S357.06,61,357.06,59Z" fill="#fff"/><path d="M362.05,59.08V58.9c0-3.82,2.84-6.24,6.53-6.24s6.48,2.35,6.48,6.12V59c0,3.87-2.85,6.19-6.51,6.19S362.05,62.92,362.05,59.08Zm8.87-.07v-.18c0-2-.8-3.12-2.34-3.12s-2.37,1.07-2.37,3.07V59c0,2,.79,3.17,2.37,3.17S370.92,61,370.92,59Z" fill="#fff"/><path d="M380,52.21h-4.21v-3.6h13.11v3.6h-4.21V64.88H380Z" fill="#fff"/><path d="M388.05,61.58c0-2.8,2.37-3.89,6.32-3.89h1.14v-.27c0-1.14-.27-1.89-1.57-1.89a1.46,1.46,0,0,0-1.61,1.41H388.5c.19-2.87,2.44-4.28,5.69-4.28s5.37,1.35,5.37,4.51v7.71h-4V63.49a3.89,3.89,0,0,1-3.52,1.66C389.94,65.15,388.05,64.11,388.05,61.58Zm7.46-.86V60h-1.07c-1.64,0-2.36.32-2.36,1.3,0,.68.45,1.11,1.41,1.11A1.79,1.79,0,0,0,395.51,60.72Z" fill="#fff"/><path d="M404.54,58.83,400.83,53h4.69l1.84,3.14,1.8-3.14h4.19l-3.76,5.53,4.12,6.37H409l-2.11-3.55-2.16,3.55h-4.17Z" fill="#fff"/><path d="M419.35,48.61h6.19c4.46,0,6.53,2,6.53,5.44v.09c0,3.41-2.3,5.26-6.32,5.26H424v5.48h-4.64Zm6,7.6c1.5,0,2.29-.7,2.29-2v-.1c0-1.38-.82-2-2.27-2H424v4.09Z" fill="#fff"/><path d="M433.48,53h4.07v2.37a3.75,3.75,0,0,1,3.85-2.53v3.8c-2.48-.07-3.85.71-3.85,2.62v5.64h-4.07Z" fill="#fff"/><path d="M442.13,59.08V58.9a6.09,6.09,0,0,1,6.43-6.24c3.26,0,6.06,1.87,6.06,6.15v1.07h-8.38a2.38,2.38,0,0,0,2.48,2.48c1.34,0,1.91-.62,2.07-1.42h3.83c-.37,2.69-2.44,4.21-6,4.21S442.13,63,442.13,59.08Zm8.53-1.5c-.07-1.44-.78-2.23-2.1-2.23a2.25,2.25,0,0,0-2.27,2.23Z" fill="#fff"/><path d="M456,53h4.07V54.8a4.15,4.15,0,0,1,3.73-2.14,3.25,3.25,0,0,1,3.23,2,4.7,4.7,0,0,1,3.94-2c2.25,0,3.89,1.46,3.89,4.44v7.78h-4.08v-7.1c0-1.2-.59-1.79-1.52-1.79a1.76,1.76,0,0,0-1.82,2v6.89h-4v-7.1c0-1.2-.59-1.79-1.52-1.79a1.76,1.76,0,0,0-1.82,2v6.89H456Z" fill="#fff"/><path d="M476.77,49.75A2.25,2.25,0,1,1,479,51.84,2.11,2.11,0,0,1,476.77,49.75ZM477,53h4.07v11.9H477Z" fill="#fff"/><path d="M482.6,59.08V58.9A6.09,6.09,0,0,1,489,52.66c3.25,0,6,1.87,6,6.15v1.07h-8.38a2.38,2.38,0,0,0,2.48,2.48c1.35,0,1.92-.62,2.07-1.42h3.83c-.37,2.69-2.44,4.21-6,4.21S482.6,63,482.6,59.08Zm8.53-1.5c-.07-1.44-.78-2.23-2.09-2.23a2.26,2.26,0,0,0-2.28,2.23Z" fill="#fff"/><path d="M496.5,53h4.07v2.37a3.75,3.75,0,0,1,3.84-2.53v3.8c-2.48-.07-3.84.71-3.84,2.62v5.64H496.5Z" fill="#fff"/><path d="M505.73,56.33a2.28,2.28,0,0,1,2.32-2.3,2.3,2.3,0,1,1,0,4.59A2.27,2.27,0,0,1,505.73,56.33Zm0,6.5a2.28,2.28,0,0,1,2.32-2.29,2.3,2.3,0,1,1,0,4.59A2.28,2.28,0,0,1,505.73,62.83Z" fill="#fff"/><path d="M518.27,57.44c-2.3-.16-3.41-1.38-3.51-3.13h2.46a1.24,1.24,0,0,0,1,1.24V53.62c-2.31-.33-3.29-1.17-3.29-3,0-1.61,1.26-2.76,3.29-2.9V46.52h1v1.2c1.92.16,3.06,1.05,3.22,2.86h-2.4a1.05,1.05,0,0,0-.82-1v1.83c2,.29,3.35,1,3.35,2.9,0,1.62-1,3-3.35,3.12v1.65h-1Zm0-6.18v-1.7c-.6.11-.91.43-.91.85S517.55,51.11,518.27,51.26Zm1,2.53v1.76a1,1,0,0,0,.89-.94C520.19,54.18,520,54,519.3,53.79Z" fill="#fff"/><path d="M523.74,60.29H528c.15.81.66,1.38,1.91,1.38,1.93,0,2.73-1.45,2.79-4.23A3.86,3.86,0,0,1,529,59.35c-3.12,0-5.51-1.8-5.51-5.25s2.55-5.74,6.69-5.74c4.85,0,7.12,3.26,7.12,8v.54c0,5.28-2.54,8.26-7.19,8.26C526.31,65.13,524.08,63.4,523.74,60.29Zm8.64-6.22A2.2,2.2,0,1,0,528,54a2.12,2.12,0,0,0,2.16,2.32A2.16,2.16,0,0,0,532.38,54.07Z" fill="#fff"/><path d="M538.66,57.1v-.68c0-5.14,3.21-8,7.51-8s7.51,2.66,7.51,7.94V57c0,5.17-3,8.19-7.6,8.19S538.66,62.22,538.66,57.1ZM549,57.05v-.66c0-3-.86-4.48-2.84-4.48s-2.84,1.48-2.84,4.48v.69c0,3,.88,4.46,2.89,4.46S549,60.06,549,57.05Z" fill="#fff"/><path d="M554.06,62.83a2.27,2.27,0,0,1,2.32-2.29,2.3,2.3,0,1,1,0,4.59A2.27,2.27,0,0,1,554.06,62.83Z" fill="#fff"/></g><g id="Rect"><rect width="728" height="90" fill="none"/></g></g></g></svg>