<svg xmlns="http://www.w3.org/2000/svg" viewBox="0 0 119.66 31.81"><title>file_online_now</title><g id="Layer_2" data-name="Layer 2"><g id="CTA"><g id="Rectangle_1" data-name="Rectangle 1"><rect width="119.66" height="31.81" fill="none"/></g><g id="File_online_now" data-name="File online now"><path d="M12.55,9.81H19v1.78H14.82v2.65h3.29V16H14.82v3.88H12.55Z" fill="#262626"/><path d="M19.86,10.4A1.16,1.16,0,1,1,21,11.5,1.11,1.11,0,0,1,19.86,10.4ZM20,12.5h2v7.33H20Z" fill="#262626"/><path d="M23.74,9.18h2V19.83h-2Z" fill="#262626"/><path d="M26.94,16.25v-.11a3.64,3.64,0,0,1,3.77-3.81,3.38,3.38,0,0,1,3.57,3.73v.56H29c.06,1.22.71,1.92,1.82,1.92.94,0,1.4-.41,1.53-1h1.92C34,19.1,32.77,20,30.77,20A3.56,3.56,0,0,1,26.94,16.25Zm5.37-.88c-.07-1.11-.63-1.64-1.6-1.64A1.68,1.68,0,0,0,29,15.37Z" fill="#262626"/><path d="M37.85,16.24v-.11a3.86,3.86,0,0,1,7.72-.05v.12A3.66,3.66,0,0,1,41.7,20,3.63,3.63,0,0,1,37.85,16.24Zm5.66,0v-.1c0-1.4-.66-2.24-1.8-2.24s-1.79.81-1.79,2.21v.12c0,1.4.65,2.24,1.79,2.24S43.51,17.6,43.51,16.21Z" fill="#262626"/><path d="M46.71,12.5h2v1.16a2.53,2.53,0,0,1,2.38-1.33c1.45,0,2.47.87,2.47,2.83v4.67h-2V15.46c0-1-.4-1.48-1.29-1.48a1.46,1.46,0,0,0-1.53,1.61v4.24h-2Z" fill="#262626"/><path d="M55.17,9.18h2V19.83h-2Z" fill="#262626"/><path d="M58.72,10.4a1.16,1.16,0,0,1,2.31,0,1.16,1.16,0,0,1-2.31,0Zm.16,2.1h2v7.33h-2Z" fill="#262626"/><path d="M62.54,12.5h2v1.16A2.55,2.55,0,0,1,67,12.33c1.44,0,2.46.87,2.46,2.83v4.67h-2V15.46c0-1-.39-1.48-1.29-1.48a1.46,1.46,0,0,0-1.53,1.61v4.24h-2Z" fill="#262626"/><path d="M70.5,16.25v-.11a3.63,3.63,0,0,1,3.76-3.81,3.38,3.38,0,0,1,3.57,3.73v.56H72.55a1.76,1.76,0,0,0,1.83,1.92c.93,0,1.4-.41,1.52-1h1.92c-.24,1.59-1.5,2.47-3.5,2.47A3.56,3.56,0,0,1,70.5,16.25Zm5.36-.88c-.07-1.11-.63-1.64-1.6-1.64a1.68,1.68,0,0,0-1.68,1.64Z" fill="#262626"/><path d="M81.85,12.5h2v1.16a2.52,2.52,0,0,1,2.38-1.33c1.44,0,2.47.87,2.47,2.83v4.67h-2V15.46c0-1-.4-1.48-1.29-1.48a1.46,1.46,0,0,0-1.53,1.61v4.24h-2Z" fill="#262626"/><path d="M89.8,16.24v-.11a3.68,3.68,0,0,1,3.87-3.8,3.63,3.63,0,0,1,3.85,3.75v.12a3.86,3.86,0,0,1-7.72,0Zm5.66,0v-.1c0-1.4-.66-2.24-1.79-2.24s-1.8.81-1.8,2.21v.12c0,1.4.65,2.24,1.8,2.24S95.46,17.6,95.46,16.21Z" fill="#262626"/><path d="M97.79,12.5h2.13l1.31,4.93,1.41-4.93h1.67l1.29,4.93L107,12.5h2l-2.31,7.33h-2l-1.25-4.6L102,19.83h-2Z" fill="#262626"/></g></g></g></svg>